<svg version="1.1" id="Layer_1" xmlns="http://www.w3.org/2000/svg" xmlns:xlink="http://www.w3.org/1999/xlink" x="0px" y="0px"
	 width="100%" viewBox="0 0 437 404" enable-background="new 0 0 437 404" xml:space="preserve">
<path fill="#FCFBFC" opacity="1.000000" stroke="none" 
	d="
M296.000000,405.000000 
	C197.333344,405.000000 99.166687,405.000000 1.000026,405.000000 
	C1.000018,270.333374 1.000018,135.666718 1.000009,1.000062 
	C146.666626,1.000042 292.333252,1.000042 437.999908,1.000021 
	C437.999939,135.666611 437.999939,270.333221 437.999969,404.999908 
	C390.833344,405.000000 343.666656,405.000000 296.000000,405.000000 
M3.283748,196.372940 
	C4.091030,196.699600 4.898312,197.026260 5.708724,197.389984 
	C5.708724,197.389984 5.677406,197.413879 6.175582,197.900055 
	C11.530586,200.884064 17.208141,203.413223 22.179369,206.938446 
	C36.411987,217.031113 45.131947,231.691971 53.656078,246.413437 
	C62.157398,261.095551 70.323051,276.007263 82.131554,288.427521 
	C118.963547,327.167694 166.493118,337.986176 216.560394,315.060699 
	C216.560394,315.060699 216.939850,314.938599 217.598877,315.132111 
	C218.280548,315.104889 218.962219,315.077667 219.960785,315.545349 
	C220.317719,315.612396 220.674637,315.679443 221.710938,316.001923 
	C227.551605,318.362640 233.223221,321.347260 239.260300,322.983185 
	C279.527679,333.895081 314.766022,323.850555 345.614838,296.623505 
	C363.140381,281.155487 374.575012,261.296722 385.549347,241.047180 
	C396.417633,220.993393 410.632263,204.232819 433.265106,196.513046 
	C433.265106,196.513046 433.306824,196.286957 433.306824,196.286957 
	C433.306824,196.286957 433.078949,196.393570 433.022186,196.004059 
	C433.022186,196.004059 432.651703,195.871017 432.334595,195.303040 
	C412.228729,188.073654 391.550385,184.356491 370.163879,185.953796 
	C360.757324,186.656357 351.145782,187.216400 342.096375,189.612518 
	C314.662170,196.876617 292.816040,213.345779 275.893524,235.427155 
	C258.642487,257.937256 243.283203,281.897125 226.438538,305.071564 
	C226.440247,304.027039 226.101349,302.828888 226.493042,301.960236 
	C239.302261,273.552429 250.968369,244.535187 270.623627,219.028183 
	C289.645386,195.184799 313.548187,179.174683 343.885620,173.895981 
	C344.121094,169.606247 344.230408,165.789612 344.555389,161.991425 
	C346.629120,137.757019 352.798157,114.551620 362.722412,91.633087 
	C361.490875,91.157471 360.111938,90.052010 359.049896,90.300575 
	C342.728180,94.120483 326.095001,97.048470 310.228882,102.287552 
	C273.779877,114.323235 243.749222,136.004700 221.969238,167.727173 
	C195.005554,206.999756 188.838028,249.292969 206.868622,294.235077 
	C208.571945,298.480713 209.682388,302.964203 210.391632,307.074615 
	C202.399170,295.436340 194.128067,283.977722 186.479324,272.117767 
	C174.919724,254.193695 163.102875,236.536697 147.434616,221.813248 
	C104.800835,181.750275 57.053967,175.151306 5.110904,195.151993 
	C4.640927,195.367020 4.170951,195.582047 3.628814,195.556427 
	C3.628814,195.556427 3.430434,195.707230 3.430434,195.707230 
	C3.430434,195.707230 3.658902,195.809433 3.283748,196.372940 
M226.518295,131.588348 
	C235.199265,125.477867 243.775528,119.209396 252.620911,113.346985 
	C255.514542,111.429192 256.391174,109.931480 254.937866,106.582603 
	C246.079773,86.170532 234.762726,67.302979 220.223206,50.426746 
	C219.510956,49.600002 218.087692,49.385799 216.367355,49.152630 
	C200.119934,67.895935 187.940887,89.029221 179.231155,111.165443 
	C192.407745,120.862061 205.021347,130.144379 218.429489,140.011398 
	C220.542709,137.716934 223.232864,134.796036 226.518295,131.588348 
M72.966026,90.994751 
	C72.966026,90.994751 72.916374,91.047371 72.871170,91.805710 
	C72.912025,91.967148 72.932625,92.137123 72.996597,92.288818 
	C83.543625,117.299301 91.077545,143.040771 92.301407,170.375092 
	C92.355354,171.579910 94.194206,173.253540 95.551949,173.749146 
	C99.756332,175.283844 104.191841,176.175369 108.427872,177.635086 
	C130.967346,185.402161 149.847992,198.655411 166.046631,216.842407 
	C170.085159,221.610580 174.123703,226.378738 178.294800,231.303421 
	C179.040482,223.943924 179.397675,216.868530 180.530289,209.919525 
	C183.669067,190.662033 192.015564,173.559189 203.184860,157.772476 
	C205.516235,154.477249 205.530411,152.496902 202.447021,149.453445 
	C176.525070,123.867203 145.787186,106.581299 110.953239,96.699844 
	C98.568504,93.186623 85.658409,91.525406 72.377411,89.135826 
	C72.571747,89.779510 72.766075,90.423195 72.966026,90.994751 
z"/>
<path fill="#EB6BA0" opacity="1.000000" stroke="none" 
	d="
M270.037720,219.430405 
	C250.968369,244.535187 239.302261,273.552429 226.493042,301.960236 
	C226.101349,302.828888 226.440247,304.027039 226.740784,305.466614 
	C225.024780,308.908173 223.006531,311.954681 220.994141,315.001740 
	C221.000015,315.002258 221.000031,314.991699 220.660355,314.991516 
	C220.095078,315.011047 219.869492,315.030762 219.643890,315.050476 
	C218.962219,315.077667 218.280548,315.104889 217.121399,314.742493 
	C214.785324,312.014343 212.926712,309.675812 211.068085,307.337280 
	C209.682388,302.964203 208.571945,298.480713 206.868622,294.235077 
	C188.838028,249.292969 195.005554,206.999756 221.969238,167.727173 
	C243.749222,136.004700 273.779877,114.323235 310.228882,102.287552 
	C326.095001,97.048470 342.728180,94.120483 359.049896,90.300575 
	C360.111938,90.052010 361.490875,91.157471 362.248505,91.692482 
	C360.869110,92.026100 359.783173,92.067772 359.085114,92.609322 
	C348.221252,101.037384 336.832275,108.899300 326.701385,118.138474 
	C305.198853,137.748337 288.510223,161.072174 278.087982,188.345932 
	C274.291107,198.281921 272.658020,209.044785 270.037720,219.430405 
z"/>
<path fill="#AE2664" opacity="1.000000" stroke="none" 
	d="
M216.163467,315.097595 
	C166.493118,337.986176 118.963547,327.167694 82.131554,288.427521 
	C70.323051,276.007263 62.157398,261.095551 53.656078,246.413437 
	C45.131947,231.691971 36.411987,217.031113 22.179369,206.938446 
	C17.208141,203.413223 11.530586,200.884064 6.341320,197.487991 
	C8.447274,196.713669 10.468814,195.808777 12.313311,196.085205 
	C19.439476,197.153183 26.581215,198.298416 33.580879,199.981567 
	C41.581150,201.905365 49.715195,203.746490 57.300762,206.829865 
	C77.708939,215.125397 95.816803,227.261200 112.308411,241.818817 
	C126.850632,254.655655 141.227066,267.683533 155.907623,280.359589 
	C173.748749,295.764679 193.086700,308.709412 216.163467,315.097595 
z"/>
<path fill="#AD2664" opacity="1.000000" stroke="none" 
	d="
M433.090393,196.387909 
	C410.632263,204.232819 396.417633,220.993393 385.549347,241.047180 
	C374.575012,261.296722 363.140381,281.155487 345.614838,296.623505 
	C314.766022,323.850555 279.527679,333.895081 239.260300,322.983185 
	C233.223221,321.347260 227.551605,318.362640 221.365952,315.685486 
	C221.020966,315.369049 221.000031,314.991699 221.000031,314.991699 
	C221.000031,314.991699 221.000015,315.002258 221.358337,314.965454 
	C223.822144,313.987518 225.888657,312.944489 228.039398,312.121490 
	C243.427048,306.233429 258.388855,299.251434 271.220856,288.943970 
	C287.209259,276.101074 302.454529,262.314453 317.749664,248.632385 
	C332.575897,235.369766 347.178223,221.674683 365.117767,212.800507 
	C377.064087,206.891022 389.690308,201.856049 402.547760,198.453064 
	C412.138397,195.914734 422.585846,196.613724 432.651703,195.871017 
	C432.651703,195.871017 433.022186,196.004059 433.039307,196.198120 
	C433.056396,196.392197 433.090393,196.387909 433.090393,196.387909 
z"/>
<path fill="#D82073" opacity="1.000000" stroke="none" 
	d="
M432.493164,195.587036 
	C422.585846,196.613724 412.138397,195.914734 402.547760,198.453064 
	C389.690308,201.856049 377.064087,206.891022 365.117767,212.800507 
	C347.178223,221.674683 332.575897,235.369766 317.749664,248.632385 
	C302.454529,262.314453 287.209259,276.101074 271.220856,288.943970 
	C258.388855,299.251434 243.427048,306.233429 228.039398,312.121490 
	C225.888657,312.944489 223.822144,313.987518 221.352448,314.964966 
	C223.006531,311.954681 225.024780,308.908173 227.069336,305.541962 
	C243.283203,281.897125 258.642487,257.937256 275.893524,235.427155 
	C292.816040,213.345779 314.662170,196.876617 342.096375,189.612518 
	C351.145782,187.216400 360.757324,186.656357 370.163879,185.953796 
	C391.550385,184.356491 412.228729,188.073654 432.493164,195.587036 
z"/>
<path fill="#D82073" opacity="1.000000" stroke="none" 
	d="
M216.361938,315.079163 
	C193.086700,308.709412 173.748749,295.764679 155.907623,280.359589 
	C141.227066,267.683533 126.850632,254.655655 112.308411,241.818817 
	C95.816803,227.261200 77.708939,215.125397 57.300762,206.829865 
	C49.715195,203.746490 41.581150,201.905365 33.580879,199.981567 
	C26.581215,198.298416 19.439476,197.153183 12.313311,196.085205 
	C10.468814,195.808777 8.447274,196.713669 6.092232,197.244904 
	C5.677406,197.413879 5.708724,197.389984 5.807251,197.009766 
	C5.902729,196.134903 5.899681,195.640244 5.896632,195.145584 
	C57.053967,175.151306 104.800835,181.750275 147.434616,221.813248 
	C163.102875,236.536697 174.919724,254.193695 186.479324,272.117767 
	C194.128067,283.977722 202.399170,295.436340 210.729858,307.205933 
	C212.926712,309.675812 214.785324,312.014343 216.791901,314.645752 
	C216.939850,314.938599 216.560394,315.060699 216.361938,315.079163 
z"/>
<path fill="#EB6BA0" opacity="1.000000" stroke="none" 
	d="
M72.988129,89.018768 
	C85.658409,91.525406 98.568504,93.186623 110.953239,96.699844 
	C145.787186,106.581299 176.525070,123.867203 202.447021,149.453445 
	C205.530411,152.496902 205.516235,154.477249 203.184860,157.772476 
	C192.015564,173.559189 183.669067,190.662033 180.530289,209.919525 
	C179.397675,216.868530 179.040482,223.943924 178.294800,231.303421 
	C174.123703,226.378738 170.085159,221.610580 166.244705,216.307037 
	C166.530731,214.988937 166.881851,214.124939 166.668839,213.435165 
	C156.639908,180.958725 140.754776,151.809921 117.464241,126.856453 
	C105.292816,113.816010 91.743507,102.419479 76.914238,92.537598 
	C75.762184,91.769897 74.257278,91.531685 72.916374,91.047371 
	C72.916374,91.047371 72.966026,90.994751 72.981010,90.689713 
	C72.993370,89.929375 72.990753,89.474075 72.988129,89.018768 
z"/>
<path fill="#D82073" opacity="1.000000" stroke="none" 
	d="
M270.330688,219.229294 
	C272.658020,209.044785 274.291107,198.281921 278.087982,188.345932 
	C288.510223,161.072174 305.198853,137.748337 326.701385,118.138474 
	C336.832275,108.899300 348.221252,101.037384 359.085114,92.609322 
	C359.783173,92.067772 360.869110,92.026100 361.996338,91.961945 
	C352.798157,114.551620 346.629120,137.757019 344.555389,161.991425 
	C344.230408,165.789612 344.121094,169.606247 343.885620,173.895981 
	C313.548187,179.174683 289.645386,195.184799 270.330688,219.229294 
z"/>
<path fill="#D82173" opacity="1.000000" stroke="none" 
	d="
M72.893768,91.426544 
	C74.257278,91.531685 75.762184,91.769897 76.914238,92.537598 
	C91.743507,102.419479 105.292816,113.816010 117.464241,126.856453 
	C140.754776,151.809921 156.639908,180.958725 166.668839,213.435165 
	C166.881851,214.124939 166.530731,214.988937 166.133270,215.990967 
	C149.847992,198.655411 130.967346,185.402161 108.427872,177.635086 
	C104.191841,176.175369 99.756332,175.283844 95.551949,173.749146 
	C94.194206,173.253540 92.355354,171.579910 92.301407,170.375092 
	C91.077545,143.040771 83.543625,117.299301 72.996597,92.288818 
	C72.932625,92.137123 72.912025,91.967148 72.893768,91.426544 
z"/>
<path fill="#D82173" opacity="1.000000" stroke="none" 
	d="
M225.923035,131.875153 
	C223.232864,134.796036 220.542709,137.716934 218.429489,140.011398 
	C205.021347,130.144379 192.407745,120.862061 179.231155,111.165443 
	C187.940887,89.029221 200.119934,67.895935 216.679565,49.494911 
	C216.972229,58.596806 216.170959,67.441124 217.108948,76.096977 
	C218.673676,90.536697 221.321167,104.860558 223.579346,119.222740 
	C224.245300,123.458336 225.135574,127.658661 225.923035,131.875153 
z"/>
<path fill="#EB6BA0" opacity="1.000000" stroke="none" 
	d="
M226.220673,131.731750 
	C225.135574,127.658661 224.245300,123.458336 223.579346,119.222740 
	C221.321167,104.860558 218.673676,90.536697 217.108948,76.096977 
	C216.170959,67.441124 216.972229,58.596806 216.993652,49.361774 
	C218.087692,49.385799 219.510956,49.600002 220.223206,50.426746 
	C234.762726,67.302979 246.079773,86.170532 254.937866,106.582603 
	C256.391174,109.931480 255.514542,111.429192 252.620911,113.346985 
	C243.775528,119.209396 235.199265,125.477867 226.220673,131.731750 
z"/>
<path fill="#AE2664" opacity="1.000000" stroke="none" 
	d="
M5.503768,195.148788 
	C5.899681,195.640244 5.902729,196.134903 5.805686,196.991241 
	C4.898312,197.026260 4.091030,196.699600 3.477207,196.098694 
	C3.670666,195.824432 3.700977,195.797073 3.700976,195.797073 
	C4.170951,195.582047 4.640927,195.367020 5.503768,195.148788 
z"/>
<path fill="#D82173" opacity="1.000000" stroke="none" 
	d="
M72.682770,89.077301 
	C72.990753,89.474075 72.993370,89.929375 72.978203,90.725777 
	C72.766075,90.423195 72.571747,89.779510 72.682770,89.077301 
z"/>
<path fill="#D82073" opacity="1.000000" stroke="none" 
	d="
M3.664896,195.676758 
	C3.700977,195.797073 3.670666,195.824432 3.664784,195.816925 
	C3.658902,195.809433 3.430434,195.707230 3.430434,195.707230 
	C3.430434,195.707230 3.628814,195.556427 3.664896,195.676758 
z"/>
<path fill="#D82073" opacity="1.000000" stroke="none" 
	d="
M433.177734,196.450470 
	C433.090393,196.387909 433.056396,196.392197 433.067688,196.392883 
	C433.078949,196.393570 433.306824,196.286957 433.306824,196.286957 
	C433.306824,196.286957 433.265106,196.513046 433.177734,196.450470 
z"/>
<path fill="#D82073" opacity="1.000000" stroke="none" 
	d="
M220.660355,314.991516 
	C221.000031,314.991699 221.020966,315.369049 221.026276,315.557739 
	C220.674637,315.679443 220.317719,315.612396 219.802338,315.297913 
	C219.869492,315.030762 220.095078,315.011047 220.660355,314.991516 
z"/>
</svg>